<svg id="Layer_5" height="512" viewBox="0 0 64 64" width="512" xmlns="http://www.w3.org/2000/svg"><path d="M17 45h-2v2c-1.654 0-3 1.346-3 3s1.346 3 3 3h2a1.001 1.001 0 010 2h-3v-1h-2v3h3v2h2v-2c1.654 0 3-1.346 3-3s-1.346-3-3-3h-2a1.001 1.001 0 010-2h3v1h2v-3h-3zm36-26v-2c1.654 0 3-1.346 3-3s-1.346-3-3-3h-2c-.551 0-1-.449-1-1s.449-1 1-1h3v1h2V7h-3V5h-2v2c-1.654 0-3 1.346-3 3s1.346 3 3 3h2c.551 0 1 .449 1 1s-.449 1-1 1h-3v-1h-2v3h3v2z"/><path d="M61.553 49.658L52.236 45H31v-7.266l4.062-4.256A3.962 3.962 0 0037 34c1.32 0 2.482-.65 3.211-1.638l6.878 2.752A5.059 5.059 0 0047 36c0 2.757 2.243 5 5 5s5-2.243 5-5a5.01 5.01 0 00-4-4.899v-8.152c5.598-.507 10-5.221 10-10.949 0-6.065-4.935-11-11-11S41 5.935 41 12c0 5.728 4.402 10.442 10 10.949v8.152a5.003 5.003 0 00-3.171 2.154l-6.88-2.752c.021-.167.051-.331.051-.503 0-2.206-1.794-4-4-4s-4 1.794-4 4c0 .773.23 1.489.612 2.101L31 34.837V12c0-2.757-2.243-5-5-5H6c-2.757 0-5 2.243-5 5v34a5.003 5.003 0 004.055 4.904C5.02 51.265 5 51.63 5 52c0 6.065 4.935 11 11 11 3.408 0 6.459-1.559 8.479-4h27.757l9.317-4.658C62.445 53.895 63 52.998 63 52s-.555-1.895-1.447-2.342zM43 12c0-4.962 4.038-9 9-9s9 4.038 9 9-4.038 9-9 9-9-4.038-9-9zm9 21c1.654 0 3 1.346 3 3s-1.346 3-3 3-3-1.346-3-3 1.346-3 3-3zm-15-5c1.103 0 2 .897 2 2s-.897 2-2 2-2-.897-2-2 .897-2 2-2zM26.949 50.995A10.906 10.906 0 0025.786 47H50.13l-1.333 1.997 1.333 1.998zM29 45h-4.521c-.064-.077-.136-.147-.202-.222L29 39.829zM3 46V12c0-1.654 1.346-3 3-3h20c1.654 0 3 1.346 3 3v24.933l-6.168 6.462a10.936 10.936 0 00-11.971-1.114A2 2 0 009 41H7c-1.103 0-2 .897-2 2v2a2 2 0 001.281 1.861 10.91 10.91 0 00-.84 2.083A3.003 3.003 0 013 46zm4.521-1H7v-2h2v.521c-.538.446-1.033.941-1.479 1.479zM16 61c-4.962 0-9-4.037-9-9s4.038-9 9-9 9 4.037 9 9-4.038 9-9 9zm10.95-8.005h23.182l-1.334 2.002L50.132 57H25.786a10.92 10.92 0 001.164-4.005zm33.708-.442l-8.315 4.158-1.141-1.713 2-3.002-2-2.998 1.14-1.708 8.316 4.158a.616.616 0 010 1.105z"/><path d="M7 23h18c1.103 0 2-.897 2-2v-8c0-1.103-.897-2-2-2H7c-1.103 0-2 .897-2 2v8c0 1.103.897 2 2 2zm0-10h18l.001 8H7zm0 18h2c1.103 0 2-.897 2-2v-2c0-1.103-.897-2-2-2H7c-1.103 0-2 .897-2 2v2c0 1.103.897 2 2 2zm0-4h2l.001 2H7zm10-2h-2c-1.103 0-2 .897-2 2v2c0 1.103.897 2 2 2h2c1.103 0 2-.897 2-2v-2c0-1.103-.897-2-2-2zm-2 4v-2h2l.001 2zm10-4h-2c-1.103 0-2 .897-2 2v2c0 1.103.897 2 2 2h2c1.103 0 2-.897 2-2v-2c0-1.103-.897-2-2-2zm-2 4v-2h2l.001 2zM7 39h2c1.103 0 2-.897 2-2v-2c0-1.103-.897-2-2-2H7c-1.103 0-2 .897-2 2v2c0 1.103.897 2 2 2zm0-4h2l.001 2H7zm10-2h-2c-1.103 0-2 .897-2 2v2c0 1.103.897 2 2 2h2c1.103 0 2-.897 2-2v-2c0-1.103-.897-2-2-2zm-2 4v-2h2l.001 2zm10-4h-2c-1.103 0-2 .897-2 2v2c0 1.103.897 2 2 2h2c1.103 0 2-.897 2-2v-2c0-1.103-.897-2-2-2zm-2 4v-2h2l.001 2z"/></svg>