<svg width="87" height="87" fill="none" xmlns="http://www.w3.org/2000/svg"><path d="M58.453 8.9H47.578a1.33 1.33 0 00-.398-.948 1.37 1.37 0 00-.961-.393h-6.974a5.358 5.358 0 00-1.937-2.888 5.487 5.487 0 00-3.324-1.118 5.487 5.487 0 00-3.323 1.118 5.357 5.357 0 00-1.937 2.888H21.75c-.36 0-.706.141-.961.393a1.33 1.33 0 00-.398.948H9.516a6.846 6.846 0 00-4.806 1.963 6.655 6.655 0 00-1.991 4.739v61.66c0 1.778.716 3.483 1.99 4.74a6.846 6.846 0 004.807 1.963h48.937c.893 0 1.776-.173 2.601-.51a6.806 6.806 0 002.205-1.453 6.697 6.697 0 001.474-2.174 6.621 6.621 0 00.517-2.565V15.602a6.62 6.62 0 00-.517-2.565 6.697 6.697 0 00-1.474-2.174 6.803 6.803 0 00-2.205-1.453 6.88 6.88 0 00-2.6-.51zM23.11 10.24h6.797c.36 0 .707-.141.962-.393.254-.251.398-.592.398-.947 0-.711.286-1.393.796-1.896a2.738 2.738 0 011.922-.785c.721 0 1.413.282 1.923.785.51.503.796 1.185.796 1.896 0 .355.143.696.398.947.255.252.601.393.962.393h6.796v6.702c0 .356-.143.697-.398.948-.255.252-.6.393-.961.393H24.469a1.37 1.37 0 01-.962-.393 1.331 1.331 0 01-.398-.948V10.24zm1.36 10.724H43.5a4.12 4.12 0 002.88-1.182 4.005 4.005 0 001.198-2.84h9.516V65.2h-8.157c-.72.002-1.41.285-1.92.787a2.67 2.67 0 00-.798 1.894v8.042H10.875v-58.98h9.516a4.006 4.006 0 001.198 2.84 4.12 4.12 0 002.88 1.182zM55.177 67.88l-6.24 6.152V67.88h6.24zm7.354 9.383a4.005 4.005 0 01-1.198 2.84 4.12 4.12 0 01-2.88 1.181H9.516a4.12 4.12 0 01-2.88-1.181 4.005 4.005 0 01-1.199-2.84V15.602a4.005 4.005 0 011.199-2.84 4.12 4.12 0 012.88-1.181H20.39v2.68H9.516c-.36 0-.707.142-.962.393a1.331 1.331 0 00-.398.948v61.66c0 .356.143.697.398.949.255.251.601.392.962.392h38.062a1.41 1.41 0 00.965-.388L59.418 67.49c.25-.256.392-.596.395-.952V15.602a1.33 1.33 0 00-.399-.948 1.369 1.369 0 00-.96-.393H47.577v-2.68h10.875a4.12 4.12 0 012.88 1.18 4.005 4.005 0 011.198 2.84v61.662z" fill="#032E4A"/><path d="M27.188 50.454v1.34c0 .356-.144.697-.399.948a1.37 1.37 0 01-.96.393h-8.157a1.37 1.37 0 01-.961-.393 1.331 1.331 0 01-.398-.948v-8.042c0-.356.143-.697.398-.948.255-.252.6-.393.96-.393h6.73c.36 0 .706.141.961.393a1.329 1.329 0 010 1.895c-.255.252-.6.393-.961.393h-5.37v5.362h5.438c0-.356.143-.697.398-.948a1.369 1.369 0 011.922 0c.255.251.398.592.398.948z" fill="#032E4A"/><path d="M28.945 41.463l-5.836 5.755-1.757-1.733a1.358 1.358 0 00-.966-.41 1.376 1.376 0 00-.973.393 1.34 1.34 0 00-.398.96 1.325 1.325 0 00.415.952l2.718 2.68a1.37 1.37 0 001.922 0l6.797-6.701a1.33 1.33 0 00-.016-1.88 1.369 1.369 0 00-1.906-.016zm-9.914 21.055v-1.34h5.366c.36 0 .706-.142.96-.393a1.331 1.331 0 000-1.896 1.369 1.369 0 00-.96-.393h-6.725c-.36 0-.706.142-.961.393a1.33 1.33 0 00-.398.948v8.043c0 .355.143.696.398.948.255.25.6.392.96.392h8.157c.36 0 .706-.141.961-.392a1.33 1.33 0 00.398-.948v-1.34a1.33 1.33 0 00-.398-.949 1.369 1.369 0 00-1.922 0 1.33 1.33 0 00-.398.948H19.03v-4.021z" fill="#032E4A"/><path d="M28.945 57.549l-5.836 5.754-1.757-1.733a1.362 1.362 0 00-.966-.409 1.375 1.375 0 00-.973.392 1.34 1.34 0 00-.398.96 1.324 1.324 0 00.415.953l2.718 2.68a1.37 1.37 0 001.922 0l6.797-6.702a1.33 1.33 0 00-.016-1.879 1.37 1.37 0 00-1.906-.016zm5.039-17.819c1.613 0 3.19-.472 4.532-1.355a8.07 8.07 0 003.004-3.61 7.94 7.94 0 00.464-4.647A8.009 8.009 0 0039.752 26a8.192 8.192 0 00-4.176-2.2 8.262 8.262 0 00-4.713.457 8.132 8.132 0 00-3.66 2.962 7.963 7.963 0 00-1.375 4.468 7.995 7.995 0 002.391 5.685 8.223 8.223 0 005.765 2.358zm0-13.405c1.076 0 2.127.315 3.021.904a5.378 5.378 0 012.003 2.406c.411.98.52 2.058.31 3.098a5.34 5.34 0 01-1.489 2.746c-.76.75-1.73 1.26-2.784 1.467a5.51 5.51 0 01-3.142-.305 5.422 5.422 0 01-2.44-1.975 5.309 5.309 0 01-.916-2.979c0-1.422.573-2.786 1.593-3.791a5.477 5.477 0 013.844-1.57z" fill="#032E4A"/><path d="M32.625 35.709h2.719v-2.681h2.718v-2.681h-2.718v-2.681h-2.719v2.68h-2.719v2.682h2.719v2.68zm0 9.383c0 .355.143.696.398.948.255.251.6.392.961.392h16.313c.36 0 .706-.14.961-.392a1.331 1.331 0 000-1.896 1.369 1.369 0 00-.961-.392H33.984c-.36 0-.706.14-.96.392a1.33 1.33 0 00-.399.948zm17.672 14.745H33.984c-.36 0-.706.141-.96.392a1.331 1.331 0 000 1.896c.254.252.6.393.96.393h16.313c.36 0 .706-.141.961-.393a1.331 1.331 0 000-1.895 1.369 1.369 0 00-.961-.393zm-8.157 5.362h-8.156c-.36 0-.706.141-.96.392a1.331 1.331 0 000 1.896c.254.251.6.393.96.393h8.157c.36 0 .706-.142.96-.393a1.33 1.33 0 000-1.896 1.37 1.37 0 00-.96-.392zm8.157-16.086H33.984c-.36 0-.706.142-.96.393a1.33 1.33 0 000 1.896c.254.251.6.392.96.392h16.313c.36 0 .706-.141.961-.392a1.331 1.331 0 000-1.896 1.369 1.369 0 00-.961-.393zm28.547-34.852h-2.719a4.12 4.12 0 00-2.88 1.182 4.005 4.005 0 00-1.198 2.84v4.021a4.12 4.12 0 00-2.88 1.181 4.005 4.005 0 00-1.198 2.84V39.73c0 .356.143.697.398.948a1.369 1.369 0 001.922 0 1.33 1.33 0 00.398-.948V26.326c0-.356.144-.697.399-.948.255-.252.6-.393.96-.393v46.916c0 .013.014.027.014.054.003.14.026.28.068.415l4.092 10.724c.099.256.273.476.502.632a1.364 1.364 0 001.547 0c.225-.157.398-.377.493-.632L82.84 72.37c.044-.139.067-.283.068-.429 0-.013.014-.027.014-.04V18.283a4.006 4.006 0 00-1.198-2.84 4.12 4.12 0 00-2.88-1.182zm-1.36 64.543l-2.12-5.563h4.241l-2.12 5.563zm2.72-8.243h-5.438V67.88h5.437v2.68zm0-5.362h-5.438v-2.681h5.437v2.68zm0-5.362h-5.438v-2.681h5.437v2.68zm0-5.362h-5.438v-29.49h5.437v29.49zm0-32.17h-5.438v-4.022c0-.356.143-.697.398-.948.255-.252.6-.393.961-.393h2.719c.36 0 .706.142.961.393s.398.592.398.948v4.021z" fill="#032E4A"/></svg>