<svg width="260" height="43" fill="none" xmlns="http://www.w3.org/2000/svg"><path d="M73.996 11.276l-2.7-.504v-2.52h5.688c.816 0 1.896-.048 3.24-.144.288-.024.648-.048 1.08-.072.432-.024.936-.036 1.512-.036 2.616 0 4.668.24 6.156.72 1.488.48 2.52 1.164 3.096 2.052.6.888.9 2.004.9 3.348 0 1.8-.564 3.288-1.692 4.464-1.104 1.176-2.52 1.884-4.248 2.124 2.4 0 4.284.54 5.652 1.62 1.392 1.08 2.088 2.604 2.088 4.572 0 2.568-.888 4.596-2.664 6.084-1.752 1.488-4.74 2.232-8.964 2.232-.672 0-1.32-.024-1.944-.072a39.783 39.783 0 00-1.332-.036C79 35.036 78.064 35 77.056 35h-5.832v-2.376l2.772-.396V11.276zm6.084 8.532c.432.048 1.404.072 2.916.072 1.32 0 2.292-.444 2.916-1.332.624-.912.936-2.184.936-3.816 0-1.512-.336-2.616-1.008-3.312-.672-.696-1.764-1.044-3.276-1.044-.36 0-.78.024-1.26.072-.48.024-.888.06-1.224.108v9.252zm0 12.636c.48.192 1.428.288 2.844.288 1.776 0 3.06-.468 3.852-1.404.816-.936 1.224-2.292 1.224-4.068 0-1.68-.372-2.88-1.116-3.6-.744-.72-1.92-1.08-3.528-1.08-1.32 0-2.412.024-3.276.072v9.792zm33.473 2.916c-.864 0-1.488-.18-1.872-.54-.384-.384-.576-.936-.576-1.656v-.792c-.576.792-1.44 1.5-2.592 2.124-1.152.6-2.316.9-3.492.9-2.352 0-4.032-.576-5.04-1.728-.984-1.176-1.476-3.132-1.476-5.868V17.792l-1.692-.468V15.02l6.768-.468h.036l.792.504v12.888c0 1.56.192 2.652.576 3.276.384.6 1.068.9 2.052.9 1.344 0 2.472-.456 3.384-1.368v-12.96l-2.232-.54V15.02l7.128-.468h.108l.864.504v17.46h1.908v2.304c-.816.168-1.572.3-2.268.396-.672.096-1.464.144-2.376.144zm8.552-26.352l-2.556-.468V6.344l7.236-.864h.108l1.044.756.036 7.812-.288 3.204c.744-.696 1.728-1.308 2.952-1.836 1.224-.552 2.568-.828 4.032-.828 1.512 0 2.688.276 3.528.828.84.552 1.428 1.392 1.764 2.52.336 1.128.504 2.628.504 4.5V32.3l2.196.324V35h-10.008v-2.376l1.908-.324v-9.828c0-1.68-.18-2.844-.54-3.492-.36-.672-1.092-1.008-2.196-1.008-.672 0-1.344.156-2.016.468-.672.288-1.236.648-1.692 1.08V32.3l1.98.324V35h-9.864v-2.376l1.872-.324V9.008zm34.083 26.388c-4.032 0-7.02-1.212-8.964-3.636-1.944-2.448-2.916-5.808-2.916-10.08 0-2.76.504-5.172 1.512-7.236 1.032-2.088 2.472-3.696 4.32-4.824 1.848-1.128 4.008-1.692 6.48-1.692 4.128 0 7.164 1.152 9.108 3.456 1.968 2.28 2.952 5.544 2.952 9.792 0 2.808-.516 5.292-1.548 7.452-1.032 2.136-2.496 3.804-4.392 5.004-1.872 1.176-4.056 1.764-6.552 1.764zm.324-25.092c-1.728 0-3.072.948-4.032 2.844-.936 1.896-1.404 4.728-1.404 8.496 0 3.84.468 6.696 1.404 8.568.936 1.848 2.268 2.772 3.996 2.772 1.704 0 3.024-1.008 3.96-3.024.96-2.04 1.44-4.956 1.44-8.748 0-3.84-.456-6.612-1.368-8.316-.912-1.728-2.244-2.592-3.996-2.592zm16.684 8.46l-2.124-.648v-2.808l6.552-.792h.108l.936.756v1.332l-.036.828c.84-.792 1.908-1.464 3.204-2.016a10.276 10.276 0 014.068-.828c1.44 0 2.568.264 3.384.792.84.504 1.44 1.32 1.8 2.448.384 1.128.576 2.664.576 4.608V32.3l2.016.288V35h-9.792v-2.376l1.764-.324v-9.828c0-1.152-.084-2.04-.252-2.664-.144-.648-.408-1.116-.792-1.404-.384-.288-.936-.432-1.656-.432-1.104 0-2.352.516-3.744 1.548V32.3l1.98.324V35h-9.972v-2.376l1.98-.324V18.764zm32.163 16.632c-3.288 0-5.724-.924-7.308-2.772-1.584-1.872-2.376-4.416-2.376-7.632 0-2.184.408-4.068 1.224-5.652.816-1.584 1.956-2.784 3.42-3.6 1.488-.84 3.228-1.26 5.22-1.26 2.52 0 4.44.636 5.76 1.908 1.344 1.272 2.04 3.072 2.088 5.4 0 1.536-.108 2.772-.324 3.708h-11.268c.12 2.04.612 3.6 1.476 4.68.888 1.056 2.124 1.584 3.708 1.584.888 0 1.812-.144 2.772-.432.984-.312 1.776-.66 2.376-1.044l1.008 2.196c-.624.696-1.692 1.356-3.204 1.98a11.718 11.718 0 01-4.572.936zm2.304-12.276l.036-1.512c0-1.512-.204-2.664-.612-3.456-.408-.792-1.104-1.188-2.088-1.188-1.008 0-1.788.444-2.34 1.332-.552.864-.852 2.472-.9 4.824h5.904z" fill="#005FA3"/><g clip-path="url(#clip0)"><path d="M32.584 4.45c-.023-.024-.07-.047-.093-.093.023.046.07.07.093.093zm-.44-.348c-.023-.023-.07-.046-.093-.07l-.046-.023.046.023c.023.024.07.047.093.07zm-.186-.139l-.07-.046.07.046zm-.255-.185l.047.046c0-.023-.023-.023-.047-.046l-.046-.024.046.024zm-.023-.024zm-.417-.278c-.046-.023-.07-.046-.116-.07.047.024.093.047.116.07zM23.29.278c-.069-.023-.161-.023-.23-.046-.047 0-.07 0-.117-.023.047 0 .07 0 .116.023a.83.83 0 01.232.046zm5.169 1.599c-.209-.093-.394-.185-.58-.255.21.07.394.162.58.255zm2.317 1.275a.458.458 0 01.116.07c-.023-.024-.07-.047-.116-.07zM26.072.927c-.046-.023-.093-.023-.14-.046-.045-.024-.092-.024-.138-.047.046.023.093.023.139.047.023.023.07.046.139.046zm-.765-.209c-.023-.023-.046-.023-.07-.023h-.023.024c.023 0 .046 0 .07.023zm2.433.835a.37.37 0 01.14.07c-.047-.024-.07-.047-.14-.07zm2.527 1.274l.092.07c.07.046.14.07.186.116-.07-.047-.116-.07-.186-.116l-.093-.07c-.023 0-.023-.023-.046-.023.023.023.023.023.047.023zm2.479 1.762c-.046-.047-.093-.07-.139-.116.047.046.093.07.14.116zm-2.758-1.924l.14.07-.14-.07-.023-.023c-.023 0-.023-.023-.046-.023.023 0 .023.023.046.023l.023.023zM28.505 1.9l.162.093c.07.023.14.07.186.093-.07-.023-.14-.07-.186-.093l-.162-.093s0-.023 0 0c0-.023 0 0 0 0zm-1.483-.625c.14.046.301.115.487.185.023 0 .023 0 .046.023-.023 0-.023 0-.046-.023-.186-.07-.348-.14-.487-.185l-.093-.024h-.023.023l.093.024zM.209 17.103c0-.023 0-.07.023-.093v-.023.023c-.023.024-.023.047-.023.093zm-.093.672v-.07c.023.024 0 .047 0 .07zm-.07.765v-.023.023c0 .07-.023.162-.023.232.023-.093.023-.162.023-.232zm10.406 8.18c0 .024.023.047.023.047-.023 0-.023-.023-.023-.046zM20.742.023c.44.023.903.046 1.344.093a12.47 12.47 0 00-1.344-.093zm3.453.417c.139.023.255.047.37.093-.115-.046-.254-.07-.37-.093zM28.9 2.086c.3.139.579.301.857.463-.279-.162-.557-.324-.858-.463zm4.124 2.734c-.046-.023-.07-.07-.116-.092l-.07-.07.07.07c.047.023.093.07.116.092zM13.465 8.714c1.715-1.831 3.8-3.268 6.164-4.172.719-.278 1.437-.51 2.179-.672-.742.186-1.46.394-2.179.672a16.438 16.438 0 00-6.164 4.172zm3.545 25.469a16.494 16.494 0 01-5.029-4.704 15.74 15.74 0 01-1.274-2.179c.37.742.788 1.483 1.274 2.178a17.08 17.08 0 005.03 4.705zM4.287 30.267C1.576 27.578.07 24.009 0 20.209v-.163.163c.07 3.8 1.576 7.37 4.287 10.058zM33.465 5.214c.046.047.07.07.115.093-.023-.023-.069-.046-.115-.093l-.047-.046-.023-.023.023.023.047.046zm.555.51l-.069-.07-.092-.092.092.093c0 .023.047.046.07.07zm-.3-.278c-.024-.023-.07-.046-.093-.093.023.024.046.07.093.093z" fill="#FFFAF7"/><path d="M.232 16.94v.047c0 .023 0 .07-.023.093v.208c0 .07-.024.14-.024.21 0 .069-.023.115-.023.184v.07c0 .07-.023.14-.023.209 0 .046 0 .116-.023.162v.371c0 .07-.023.162-.023.231v1.136C0 19.93 0 19.93 0 19.954v.255c.046 3.8 1.576 7.37 4.287 10.034a14.366 14.366 0 0011.936 4.033c.278-.023.533-.07.81-.116a16.494 16.494 0 01-5.028-4.705 15.75 15.75 0 01-1.275-2.178c-.093-.162-.162-.348-.232-.51 0-.023-.023-.046-.023-.046A16.644 16.644 0 019.061 20c0-3.407 1.02-6.674 2.967-9.479.44-.648.927-1.251 1.46-1.807 1.715-1.831 3.8-3.268 6.164-4.172.719-.278 1.437-.51 2.179-.672a15.938 15.938 0 013.8-.44c3.013 0 5.91.811 8.436 2.294l-.07-.07-.092-.092-.023-.023c-.023-.023-.07-.047-.093-.093-.023-.023-.07-.046-.093-.093l-.023-.023c-.046-.023-.07-.07-.116-.092l-.046-.047-.023-.023a1.007 1.007 0 00-.162-.14 1.007 1.007 0 01-.163-.138c-.023-.023-.046-.023-.046-.046-.046-.024-.07-.07-.116-.093l-.07-.07-.046-.046-.023-.023-.023-.023c-.046-.047-.093-.07-.14-.116-.022-.023-.069-.047-.092-.093a14.518 14.518 0 00-.324-.255c-.023-.023-.07-.046-.093-.07l-.046-.023-.023-.023h-.024l-.07-.046-.022-.023-.093-.07-.023-.023-.047-.046-.023-.024c-.023-.023-.07-.046-.092-.069l-.024-.023c-.092-.07-.162-.116-.255-.186-.046-.023-.07-.046-.115-.07l-.024-.022c-.046-.047-.116-.07-.162-.116-.023 0-.023-.023-.046-.023-.046-.024-.093-.047-.116-.07-.07-.046-.116-.07-.186-.116-.069-.046-.115-.07-.185-.116l-.093-.07c-.023 0-.023-.022-.046-.022s-.046-.024-.07-.024c-.023 0-.023-.023-.046-.023l-.139-.07-.023-.022c-.023 0-.023-.024-.046-.024a.458.458 0 01-.116-.07h-.023c-.279-.161-.58-.3-.858-.463h-.023c-.07-.023-.14-.07-.186-.092l-.44-.186h-.023c-.209-.092-.394-.185-.58-.255-.046-.023-.092-.046-.138-.046h-.047l-.07-.023c-.022 0-.046-.023-.092-.023-.023 0-.023 0-.046-.023-.186-.07-.348-.14-.487-.186l-.093-.023h-.023l-.093-.023c-.255-.093-.486-.186-.764-.255h-.023c-.047-.023-.093-.023-.14-.046-.046-.024-.092-.024-.139-.047-.023 0-.07-.023-.092-.023-.116-.023-.209-.07-.325-.093h-.046c0-.139-.023-.139-.046-.139h-.047c-.208-.046-.417-.116-.649-.162-.116-.023-.255-.046-.37-.093-.21-.046-.44-.092-.65-.139-.069-.023-.162-.023-.231-.046-.07-.023-.162-.023-.232-.046-.046 0-.07 0-.116-.024-.046 0-.093-.023-.139-.023-.232-.023-.463-.07-.695-.092-.44-.047-.904-.07-1.344-.093C20.51 0 20.255 0 20 0c-.417 0-.858.023-1.275.046h-.139c-.463.024-.927.07-1.39.14-.093.023-.162.023-.255.046L.23 16.94z" fill="#005FA3"/><path d="M39.768 23.036v-.023c0-.023 0-.047.023-.093v-.023c0-.046.024-.07.024-.116v-.069l.023-.116.023-.093c0-.093.023-.162.023-.232s.023-.139.023-.208c0-.07.024-.116.024-.163v-.208c0-.047 0-.093.023-.163v-.023c0-.07.023-.139.023-.231 0-.07 0-.163.023-.232v-1.252a14.245 14.245 0 00-4.287-10.034 14.366 14.366 0 00-10.128-4.149c-.88 0-1.761.07-2.595.232a16.494 16.494 0 015.029 4.705c1.946 2.78 2.966 6.048 2.966 9.478 0 3.407-1.02 6.675-2.966 9.479a16.552 16.552 0 01-7.625 5.979 16.392 16.392 0 01-5.98 1.112c-3.012 0-5.909-.81-8.435-2.294h.023l.047.046.046.047.093.092c.046.047.116.116.185.163.046.046.093.07.116.115.07.07.139.14.232.209l.139.14.023.022.139.116.023.023c.047.023.07.07.116.093l.023.023.023.023c.024.023.07.07.116.093h.047c.023.023.07.046.092.07.116.092.209.162.325.255.023.023.046.046.07.046a.32.32 0 00.092.07c.023.023.023.023.046.023l.024.023c.046.023.092.07.139.092l.046.024c.023.023.046.023.07.046.023.023.069.046.092.07l.046.023c.093.07.163.115.255.185.047.023.07.046.116.07l.023.023.093.07.093.069c.046.023.093.07.162.093.046.023.116.069.162.092h.186l.231.209c.024.023.07.046.116.07.07.046.14.092.209.115.046.023.116.07.162.093.301.162.603.324.904.463.07.023.139.07.208.093 0 0 .024 0 .024.023.07.023.116.07.185.093.185.093.37.185.58.255l.138.07c.024 0 .024.023.047.023.07.023.116.046.185.07.162.069.325.115.487.184.046.024.116.047.162.07.255.093.51.185.742.255.046.023.093.023.139.046.07.024.139.047.232.07l.07.023c.092.023.184.046.254.07.046.023.093.023.14.046.555.139 1.111.278 1.668.37.07.024.139.024.231.047.093.023.163.023.232.046.07.023.162.023.232.023.927.14 1.854.186 2.804.186.927 0 1.877-.07 2.804-.185h.024c.069 0 .139-.024.231-.024l16.71-16.709.115.093z" fill="#222"/></g><defs><clipPath id="clip0"><path fill="#fff" d="M0 0h40v40H0z"/></clipPath></defs></svg>