<svg width="261" height="32" fill="none" xmlns="http://www.w3.org/2000/svg"><path d="M24.081 14.797c0 2.105-.426 3.91-1.216 5.474s-1.824 2.827-3.101 3.79a13.638 13.638 0 01-4.379 2.225c-1.642.48-3.284.782-4.986.782H0v-1.264c.365 0 .79-.06 1.338-.12.547-.06.912-.12 1.094-.24.365-.18.609-.361.791-.662.182-.3.243-.662.243-1.083V5.835c0-.421-.06-.722-.182-1.083-.183-.3-.487-.541-.852-.722-.364-.18-.79-.3-1.216-.36-.425-.061-.79-.121-1.094-.181V2.226h10.946c1.52 0 2.98.24 4.439.661a12.578 12.578 0 013.83 1.865c1.46 1.022 2.616 2.406 3.467 4.09.851 1.744 1.277 3.67 1.277 5.955zm-4.317 0c0-1.684-.244-3.188-.67-4.511a10.642 10.642 0 00-1.945-3.55c-.79-.962-1.825-1.683-2.98-2.225-1.155-.541-2.493-.842-3.953-.842H8.574c-.608 0-1.033.06-1.338.06v19.068c0 1.083.305 1.805.913 2.226.608.42 1.58.601 2.858.601 1.52 0 2.797-.24 3.953-.782a8.06 8.06 0 002.736-2.165 9.085 9.085 0 001.581-3.369c.304-1.323.486-2.827.486-4.511zm22.439 8.18a9.11 9.11 0 01-2.92 3.309c-1.215.842-2.614 1.203-4.195 1.203-1.399 0-2.615-.24-3.71-.722-1.094-.481-1.945-1.143-2.614-1.985-.67-.842-1.217-1.805-1.52-2.948-.366-1.142-.487-2.285-.487-3.548 0-1.143.182-2.226.547-3.309a9.516 9.516 0 011.581-2.887 7.265 7.265 0 012.493-1.985 7.598 7.598 0 013.345-.782c1.277 0 2.372.18 3.284.602.912.42 1.642.962 2.189 1.624a6.394 6.394 0 011.216 2.286c.243.902.426 1.864.426 2.887v1.143H30.284c0 1.143.121 2.165.304 3.067.243.902.547 1.745 1.034 2.406.486.662 1.033 1.203 1.824 1.624.79.421 1.642.602 2.676.602 1.033 0 1.946-.24 2.736-.722.73-.481 1.52-1.383 2.19-2.647l1.155.782zm-3.892-6.556c0-.662-.061-1.323-.183-2.105-.121-.722-.304-1.384-.547-1.865-.243-.541-.669-.962-1.095-1.323-.486-.361-1.094-.481-1.824-.481-1.216 0-2.25.48-3.101 1.503-.79 1.023-1.277 2.406-1.338 4.271h8.088zm25.175 10.647h-8.513v-1.143c.243 0 .547-.06.912-.06.304 0 .608-.06.79-.12.305-.121.548-.302.73-.542.183-.24.244-.602.244-1.023v-8.902c0-1.203-.304-2.165-.852-2.827a2.809 2.809 0 00-2.189-1.023 5.04 5.04 0 00-1.703.301c-.547.18-.973.421-1.398.722-.365.24-.73.541-.912.842-.244.3-.426.542-.487.722v9.925c0 .42.06.722.243.962s.426.481.73.602c.243.12.487.18.79.24.305.06.609.12.913.12v1.204H44.27v-1.143c.243 0 .548-.06.852-.06a2.3 2.3 0 00.73-.12 1.68 1.68 0 00.73-.542c.181-.24.242-.602.242-1.023V13.474c0-.421-.06-.782-.243-1.083a1.836 1.836 0 00-.73-.782c-.243-.18-.547-.24-.851-.3-.304-.06-.608-.121-.973-.121v-1.143l5.777-.36.243.24v2.406h.061l1.034-1.023a7.707 7.707 0 011.216-.962c.426-.301.973-.542 1.581-.722a7.03 7.03 0 012.007-.3c1.703 0 2.919.54 3.71 1.563.79 1.023 1.216 2.406 1.216 4.09v8.963c0 .42.06.722.182.962s.365.421.73.602c.304.12.547.18.73.24.182.06.486.06.85.12v1.204h.123zm12.892-.782c-.79.3-1.52.601-2.189.782-.669.24-1.52.3-2.493.3-1.46 0-2.493-.36-3.101-1.082-.608-.722-.913-1.745-.913-3.068v-11.67H64.52V9.866h3.223V4.51h3.223v5.354h4.987v1.684h-4.987v9.624c0 .722 0 1.323.061 1.804.06.482.183.903.365 1.264.182.36.486.601.851.782.365.18.912.24 1.52.24.305 0 .73 0 1.277-.06.548-.06.973-.12 1.217-.18v1.263h.121zm18.244.481c-.548.18-1.034.36-1.46.481-.425.12-.912.18-1.399.18-.912 0-1.641-.24-2.189-.661-.547-.421-.912-1.023-1.034-1.865h-.121c-.79.842-1.581 1.504-2.493 1.925-.913.421-1.946.662-3.163.662-1.337 0-2.371-.421-3.223-1.203-.85-.782-1.277-1.805-1.277-3.128 0-.662.122-1.263.304-1.805a4.332 4.332 0 01.852-1.443c.304-.361.669-.662 1.155-.963.487-.3.913-.48 1.338-.661.547-.18 1.581-.542 3.223-1.083 1.642-.541 2.737-.962 3.284-1.263v-1.745c0-.18-.06-.42-.122-.902-.06-.481-.182-.842-.425-1.203a4.247 4.247 0 00-.973-1.143c-.426-.3-1.034-.48-1.825-.48-.547 0-1.034.12-1.52.3-.487.18-.79.36-.973.541 0 .24.06.602.182 1.023.122.481.183.902.183 1.263 0 .421-.183.782-.547 1.143-.365.36-.912.481-1.52.481-.609 0-1.034-.18-1.278-.601-.243-.422-.425-.903-.425-1.384 0-.541.182-1.023.547-1.564.365-.541.851-.902 1.52-1.323a9.854 9.854 0 011.946-.842c.73-.24 1.52-.361 2.19-.361.972 0 1.824.06 2.614.18.79.12 1.399.421 2.007.842.608.421 1.034 1.023 1.399 1.745.304.722.486 1.684.486 2.887 0 1.684 0 3.128-.06 4.451-.062 1.263-.062 2.707-.062 4.21 0 .482.061.843.244 1.083.182.24.425.482.73.662.182.12.486.18.85.18h1.156v1.384h-.121zm-6.203-9.263c-.973.3-1.885.601-2.615.842-.73.3-1.46.601-2.128 1.022-.608.421-1.034.843-1.399 1.384-.365.541-.487 1.203-.487 1.925 0 .962.244 1.684.791 2.165.486.481 1.156.662 1.946.662.851 0 1.581-.18 2.19-.602.607-.42 1.155-.902 1.58-1.443l.122-5.955zm16.054 9.564h-8.514v-1.143c.244 0 .548-.06.852-.06a2.3 2.3 0 00.73-.12c.304-.12.547-.301.73-.542.182-.24.242-.601.242-1.023V4.15c0-.42-.121-.842-.304-1.203-.182-.36-.425-.661-.73-.842-.182-.12-.607-.24-1.155-.36-.547-.12-1.034-.181-1.337-.181V.36l6.628-.36.243.24v23.64c0 .42.061.722.243 1.022.183.24.426.482.73.602.243.12.487.18.791.24.243.06.547.12.851.12v1.204zm35.331-14.496a9.51 9.51 0 00-2.128.42c-.73.241-1.277.542-1.642 1.023-.243.3-.487.722-.73 1.263a45.559 45.559 0 01-.912 1.925c-.365.722-.73 1.504-1.095 2.226s-.851 1.443-1.398 2.165a40.334 40.334 0 001.702 1.805c.669.661 1.277 1.142 1.764 1.443.486.24 1.155.481 2.007.662.851.18 1.581.3 2.128.3v1.264h-7.297l-2.615-2.948c-.365.421-.851.842-1.338 1.324-.486.42-1.034.842-1.581 1.143-.608.36-1.216.601-1.824.842a7.7 7.7 0 01-2.19.3c-.851 0-1.763-.12-2.614-.36-.852-.241-1.642-.662-2.372-1.203a6.136 6.136 0 01-1.642-2.046c-.426-.842-.608-1.864-.608-3.007 0-1.444.365-2.767 1.155-3.91.791-1.143 2.19-2.406 4.318-3.73a35.636 35.636 0 01-2.25-3.247c-.547-.903-.791-1.925-.791-3.068 0-.782.183-1.564.487-2.226a5.339 5.339 0 011.459-1.804c.548-.481 1.217-.782 2.007-1.083a8.11 8.11 0 012.372-.36c.912 0 1.763.12 2.493.42.73.301 1.277.662 1.763 1.143.426.421.73.963.973 1.564.244.602.304 1.143.304 1.745 0 1.383-.425 2.586-1.337 3.608-.852 1.023-2.068 1.925-3.649 2.707a63.226 63.226 0 003.223 4.03 154.46 154.46 0 013.04 3.61c.791-1.264 1.399-2.407 1.825-3.55.425-1.082.669-2.045.669-2.887 0-.36-.304-.661-.852-.902-.547-.24-1.277-.421-2.25-.601v-1.264h9.426v1.264zm-11.067 10.526a138.304 138.304 0 00-3.71-4.511c-1.399-1.625-2.493-3.008-3.284-4.15-.973.66-1.642 1.443-2.006 2.285-.365.902-.609 1.865-.609 3.007 0 1.564.487 2.888 1.399 3.97.912 1.023 2.128 1.564 3.649 1.564a6.5 6.5 0 002.554-.541c.851-.361 1.459-.963 2.007-1.624zm-1.399-16.18c0-1.204-.243-2.106-.791-2.707-.547-.662-1.277-.963-2.25-.963-.547 0-1.033.12-1.398.361-.365.24-.669.481-.912.842a2.275 2.275 0 00-.487 1.023c-.122.36-.182.722-.182 1.022 0 .782.182 1.624.608 2.467.425.842 1.094 1.804 2.006 3.007 1.217-.662 2.068-1.383 2.615-2.165.548-.963.791-1.865.791-2.888zm40.743 8.601c.73.481 1.338 1.143 1.824 1.925.487.782.73 1.744.73 2.887s-.243 2.165-.73 3.007a6.063 6.063 0 01-2.006 2.106 8.287 8.287 0 01-2.676 1.203c-.973.3-2.007.42-3.101.42h-11.859v-1.262c.305 0 .669-.06 1.217-.12.547-.06.912-.181 1.155-.301.365-.181.608-.361.791-.662.182-.3.243-.602.243-1.083V5.835a2.56 2.56 0 00-.183-1.023c-.121-.3-.425-.541-.79-.722a6.56 6.56 0 00-1.155-.42c-.426-.121-.791-.181-1.095-.181V2.226H162c.912 0 1.763.06 2.554.24.791.18 1.581.481 2.311.902.669.421 1.277.963 1.703 1.685.425.721.668 1.564.668 2.526a5.78 5.78 0 01-.486 2.346c-.304.661-.791 1.263-1.338 1.744-.547.481-1.155.842-1.885 1.203-.73.361-1.459.542-2.25.722v.24c.73.06 1.52.241 2.432.542.913.3 1.703.662 2.372 1.143zm-4.257-3.73c.426-.48.73-1.022.912-1.624.183-.601.244-1.323.244-2.105 0-1.383-.365-2.466-1.156-3.188-.729-.782-1.946-1.143-3.588-1.143h-1.398c-.547 0-1.034.06-1.46.06v9.444h2.25c.973 0 1.764-.12 2.494-.36.729-.241 1.277-.602 1.702-1.083zm2.433 7.88c0-1.443-.487-2.646-1.521-3.609-1.033-.962-2.432-1.443-4.256-1.443h-1.885c-.548 0-.913.06-1.156.06v8.782c0 .721.304 1.263.912 1.684.608.42 1.46.541 2.494.541 1.763 0 3.101-.481 4.013-1.504.973-1.022 1.399-2.526 1.399-4.51zM189 22.977a9.114 9.114 0 01-2.919 3.309c-1.216.842-2.615 1.203-4.196 1.203-1.399 0-2.615-.24-3.709-.722-1.034-.481-1.946-1.143-2.615-1.985-.669-.842-1.216-1.805-1.52-2.948-.365-1.142-.487-2.285-.487-3.548a10.2 10.2 0 01.547-3.309 9.52 9.52 0 011.581-2.887 7.268 7.268 0 012.494-1.985 7.596 7.596 0 013.344-.782c1.277 0 2.372.18 3.284.602.912.42 1.642.962 2.189 1.624a6.378 6.378 0 011.216 2.286c.244.902.426 1.864.426 2.887v1.143h-11.554c0 1.143.122 2.165.304 3.067.243.902.547 1.745 1.034 2.406.486.662 1.034 1.203 1.824 1.624.73.421 1.642.602 2.676.602 1.034 0 1.946-.24 2.736-.722.73-.481 1.521-1.383 2.19-2.647l1.155.782zm-3.892-6.556a13.5 13.5 0 00-.182-2.105c-.122-.722-.304-1.384-.548-1.865-.243-.541-.669-.962-1.094-1.323-.487-.361-1.095-.481-1.825-.481-1.216 0-2.25.48-3.101 1.503-.79 1.023-1.277 2.406-1.338 4.271h8.088zm22.378 10.346c-.547.18-1.033.36-1.459.481a5.25 5.25 0 01-1.399.18c-.912 0-1.642-.24-2.189-.661-.547-.421-.912-1.023-1.034-1.865h-.121c-.791.842-1.581 1.504-2.493 1.925-.913.421-1.946.662-3.163.662-1.337 0-2.371-.421-3.223-1.203-.851-.782-1.277-1.805-1.277-3.128 0-.662.122-1.263.304-1.805a4.34 4.34 0 01.852-1.443c.304-.361.669-.662 1.155-.963.487-.3.912-.48 1.338-.661.547-.18 1.581-.542 3.223-1.083 1.642-.541 2.736-.962 3.284-1.263v-1.745c0-.18-.061-.42-.122-.902-.061-.481-.182-.842-.426-1.203a4.252 4.252 0 00-.972-1.143c-.426-.3-1.034-.48-1.825-.48-.547 0-1.034.12-1.52.3-.487.18-.791.36-.973.541 0 .24.061.602.182 1.023.122.481.183.902.183 1.263 0 .421-.183.782-.547 1.143-.365.36-.913.481-1.521.481-.608 0-1.034-.18-1.277-.601-.243-.422-.425-.903-.425-1.384 0-.541.182-1.023.547-1.564.365-.541.851-.902 1.52-1.323a9.836 9.836 0 011.946-.842c.73-.24 1.52-.361 2.189-.361.973 0 1.825.06 2.615.18.791.12 1.399.421 2.007.842.608.421 1.034 1.023 1.398 1.745.305.722.487 1.684.487 2.887 0 1.684 0 3.128-.061 4.451-.061 1.263-.061 2.707-.061 4.21 0 .482.061.843.244 1.083.182.24.425.482.729.662.183.12.487.18.852.18h1.155v1.384h-.122zm-6.141-9.263c-.973.3-1.886.601-2.615.842-.73.3-1.46.601-2.129 1.022-.608.421-1.033.843-1.398 1.384-.365.541-.487 1.203-.487 1.925 0 .962.243 1.684.791 2.165.486.481 1.155.662 1.946.662.851 0 1.581-.18 2.189-.602.608-.42 1.155-.902 1.581-1.443l.122-5.955zm26.574 9.263l-5.716.36-.244-.24v-2.165h-.121l-.973.962c-.365.361-.73.662-1.216.902-.548.301-1.034.542-1.521.722-.486.18-1.216.24-2.128.24-1.52 0-2.737-.48-3.527-1.503-.791-1.023-1.216-2.466-1.216-4.33v-8.301c0-.422-.061-.782-.244-1.083-.182-.301-.364-.542-.729-.722-.244-.12-.487-.24-.791-.3a5.416 5.416 0 00-1.034-.121v-1.143l5.838-.421.243.24v11.97c0 1.264.305 2.166.852 2.828.547.601 1.216.962 2.007.962.669 0 1.216-.12 1.702-.3a4.391 4.391 0 001.277-.723c.304-.24.608-.48.852-.781.243-.301.425-.542.547-.782v-9.745c0-.36-.061-.722-.243-1.022a2.717 2.717 0 00-.669-.782c-.183-.12-.547-.24-.973-.24-.426 0-.912-.061-1.399-.061v-1.143L225 9.624l.243.24V23.52c0 .42.061.722.243 1.022.183.301.365.542.669.722.183.12.487.24.73.24.304.06.608.06.973.06v1.204h.061zm12.892-.481c-.791.3-1.52.601-2.189.782-.669.24-1.521.3-2.494.3-1.459 0-2.493-.36-3.101-1.082-.608-.722-.912-1.745-.912-3.068v-11.67h-3.162V9.866h3.223V4.51h3.223v5.354h4.986v1.684h-4.986v9.624c0 .722 0 1.323.06 1.804.061.482.183.903.365 1.264.183.36.487.601.852.782.365.18.912.24 1.52.24.304 0 .73 0 1.277-.06.547-.06.973-.12 1.216-.18v1.263h.122zm2.919 3.548c0-.601.182-1.082.486-1.443s.73-.541 1.216-.541c.365 0 .73.06.973.18.244.12.487.3.73.541.183.18.365.421.547.722.183.301.365.542.487.722 1.095-.662 2.311-2.526 2.736-3.91a352.679 352.679 0 00-3.04-7.398c-.912-2.166-1.885-3.85-2.858-6.136a2.595 2.595 0 00-1.156-1.263c-.547-.3-1.033-.481-1.581-.541V9.624h7.966v1.203c-.364 0-.79.06-1.277.24-.486.12-.729.301-.729.482 0 .06 0 .18.061.36.06.181.121.362.182.482.426 1.143 1.155 2.226 2.068 4.39.912 2.166 1.641 3.91 2.128 5.234.547-1.263 1.095-2.526 1.642-3.85.547-1.323 1.216-2.285 1.946-4.15a4.59 4.59 0 01.365-.902c.182-.361.243-.722.243-1.023 0-.3-.243-.601-.791-.842-.547-.24-1.033-.421-1.52-.481V9.624H261v1.083c-.365.06-.791.24-1.399.601s-1.033.842-1.277 1.444c-1.398 3.188-2.675 5.534-3.709 8.18-1.095 2.647-1.946 4.572-2.493 5.835-.73 1.624-1.703 3.188-2.554 3.91-.548.48-1.034.842-1.46.962-.426.18-.912.24-1.399.24-.912 0-1.641-.24-2.189-.661-.547-.3-.79-.842-.79-1.384z" fill="#1C2953"/></svg>