<svg width="40" height="40" fill="none" xmlns="http://www.w3.org/2000/svg"><path d="M28.07 12.857H11.93L20 19.774l8.07-6.917z" fill="#032E4A"/><path d="M20 21.429a.713.713 0 01-.465-.173l-8.82-7.56v13.447h18.57V13.696l-8.82 7.56a.713.713 0 01-.465.173z" fill="#032E4A"/><path d="M20 0C8.954 0 0 8.954 0 20s8.954 20 20 20 20-8.954 20-20C39.987 8.96 31.04.013 20 0zm10.714 27.857c0 .395-.32.714-.714.714H10a.714.714 0 01-.714-.714V12.143c0-.395.32-.714.714-.714h20c.395 0 .714.32.714.714v15.714z" fill="#032E4A"/></svg>