<svg width="27" height="41" fill="none" xmlns="http://www.w3.org/2000/svg"><path d="M27 14.654c0-1.796-.35-3.573-1.028-5.232a13.687 13.687 0 00-2.926-4.436 13.489 13.489 0 00-4.38-2.964 13.352 13.352 0 00-10.332 0 13.49 13.49 0 00-4.38 2.964 13.686 13.686 0 00-2.926 4.436A13.825 13.825 0 000 14.654c0 2.71.79 5.229 2.131 7.354h-.015C6.667 29.226 13.5 40.047 13.5 40.047l11.384-18.039h-.013A13.762 13.762 0 0027 14.654zm-13.5 5.86a5.749 5.749 0 01-4.091-1.716 5.898 5.898 0 01-1.695-4.144c0-1.554.61-3.044 1.695-4.143A5.749 5.749 0 0113.5 8.794a5.75 5.75 0 014.091 1.717 5.898 5.898 0 011.695 4.143 5.9 5.9 0 01-1.695 4.144 5.749 5.749 0 01-4.091 1.716z" fill="#032E4A"/></svg>