<svg width="40" height="40" fill="none" xmlns="http://www.w3.org/2000/svg"><g clip-path="url(#clip0)"><path d="M34.14 5.855c-7.812-7.809-20.476-7.807-28.285.005-7.81 7.811-7.807 20.475.005 28.284 7.811 7.81 20.474 7.807 28.284-.004a20 20 0 00-.005-28.285zM30.288 27.86l-.003.003v-.007l-1.013 1.007a5.333 5.333 0 01-5.034 1.44 17.72 17.72 0 01-5.146-2.307 23.775 23.775 0 01-4.06-3.273 23.965 23.965 0 01-3.034-3.68 18.664 18.664 0 01-2.28-4.613 5.333 5.333 0 011.334-5.447l1.186-1.187a.847.847 0 011.2 0l3.747 3.747c.331.33.333.866.003 1.197l-.003.003-2.2 2.2a1.793 1.793 0 00-.187 2.333 25.72 25.72 0 002.634 3.074 25.576 25.576 0 003.466 2.913c.717.5 1.688.415 2.307-.2l2.127-2.16a.847.847 0 011.197-.003l.003.003 3.753 3.76c.332.33.333.866.003 1.197z" fill="#032E4A"/></g><defs><clipPath id="clip0"><path fill="#fff" d="M0 0h40v40H0z"/></clipPath></defs></svg>