<svg width="40" height="40" fill="none" xmlns="http://www.w3.org/2000/svg"><path d="M20 0C8.956 0 0 8.956 0 20s8.956 20 20 20 20-8.956 20-20S31.044 0 20 0zm.424 31.645h-.005a11.97 11.97 0 01-5.72-1.457l-6.346 1.664 1.698-6.201a11.939 11.939 0 01-1.598-5.982c.003-6.598 5.373-11.966 11.97-11.966a11.894 11.894 0 018.468 3.51 11.893 11.893 0 013.503 8.465c-.003 6.598-5.373 11.967-11.97 11.967z" fill="#032E4A"/><path d="M20.428 9.724c-5.488 0-9.951 4.461-9.954 9.945 0 1.88.526 3.71 1.521 5.293l.237.377-1.005 3.67 3.765-.988.364.216a9.933 9.933 0 005.064 1.386h.004c5.483 0 9.947-4.461 9.949-9.946a9.885 9.885 0 00-2.912-7.036 9.883 9.883 0 00-7.033-2.917zm5.852 14.222c-.25.698-1.444 1.335-2.019 1.421-.515.077-1.167.11-1.884-.118a17.24 17.24 0 01-1.705-.63c-3-1.295-4.96-4.315-5.11-4.515-.149-.2-1.22-1.621-1.22-3.093 0-1.471.772-2.195 1.046-2.494a1.1 1.1 0 01.798-.374c.2 0 .399.002.573.01.184.01.43-.07.673.513.25.6.847 2.07.922 2.22.075.15.125.325.025.524-.1.2-.431.63-.748 1.023-.132.164-.305.31-.13.61.174.3.774 1.279 1.663 2.072 1.143 1.018 2.106 1.334 2.405 1.484.3.15.474.124.648-.075.175-.2.748-.873.947-1.173.2-.3.4-.249.673-.15.275.1 1.745.824 2.044.973.3.15.498.225.573.35.075.125.075.723-.174 1.422z" fill="#032E4A"/></svg>