<svg width="40" height="40" fill="none" xmlns="http://www.w3.org/2000/svg"><path d="M17.509 16.253L24.015 20l-6.506 3.747v-7.494z" fill="#032E4A"/><path d="M20 40C8.956 40 0 31.044 0 20S8.956 0 20 0s20 8.956 20 20-8.956 20-20 20zm12.497-20.02s0-4.056-.515-6.012a3.132 3.132 0 00-2.203-2.203C27.823 11.25 20 11.25 20 11.25s-7.803 0-9.78.535a3.132 3.132 0 00-2.202 2.203C7.503 15.924 7.503 20 7.503 20s0 4.056.515 6.012a3.195 3.195 0 002.203 2.223c1.956.515 9.779.515 9.779.515s7.823 0 9.78-.535a3.132 3.132 0 002.202-2.203c.536-1.956.515-6.032.515-6.032z" fill="#032E4A"/></svg>